<mxfile host="app.diagrams.net" agent="Mozilla/5.0 (Windows NT 10.0; Win64; x64) AppleWebKit/537.36 (KHTML, like Gecko) Chrome/138.0.0.0 Safari/537.36" version="28.0.6">
  <diagram name="Page-1" id="HCEVWLhOpOf9-7jaCYFH">
    <mxGraphModel dx="426" dy="430" grid="1" gridSize="10" guides="1" tooltips="1" connect="1" arrows="1" fold="1" page="1" pageScale="1" pageWidth="850" pageHeight="1100" math="0" shadow="0">
      <root>
        <mxCell id="0" />
        <mxCell id="1" parent="0" />
        <mxCell id="B5_pqgUknIKCM4PgPGWI-3" style="edgeStyle=orthogonalEdgeStyle;rounded=0;orthogonalLoop=1;jettySize=auto;html=1;entryX=0.5;entryY=0;entryDx=0;entryDy=0;" edge="1" parent="1" source="B5_pqgUknIKCM4PgPGWI-1" target="B5_pqgUknIKCM4PgPGWI-2">
          <mxGeometry relative="1" as="geometry" />
        </mxCell>
        <mxCell id="B5_pqgUknIKCM4PgPGWI-1" value="&lt;font style=&quot;font-size: 18px;&quot;&gt;1&lt;/font&gt;" style="ellipse;whiteSpace=wrap;html=1;aspect=fixed;" vertex="1" parent="1">
          <mxGeometry x="320" width="80" height="80" as="geometry" />
        </mxCell>
        <mxCell id="B5_pqgUknIKCM4PgPGWI-6" style="rounded=0;orthogonalLoop=1;jettySize=auto;html=1;" edge="1" parent="1" source="B5_pqgUknIKCM4PgPGWI-2" target="B5_pqgUknIKCM4PgPGWI-4">
          <mxGeometry relative="1" as="geometry" />
        </mxCell>
        <mxCell id="B5_pqgUknIKCM4PgPGWI-7" style="rounded=0;orthogonalLoop=1;jettySize=auto;html=1;" edge="1" parent="1" source="B5_pqgUknIKCM4PgPGWI-2" target="B5_pqgUknIKCM4PgPGWI-5">
          <mxGeometry relative="1" as="geometry" />
        </mxCell>
        <mxCell id="B5_pqgUknIKCM4PgPGWI-2" value="&lt;font style=&quot;font-size: 18px;&quot;&gt;2&lt;/font&gt;" style="ellipse;whiteSpace=wrap;html=1;aspect=fixed;" vertex="1" parent="1">
          <mxGeometry x="320" y="120" width="80" height="80" as="geometry" />
        </mxCell>
        <mxCell id="B5_pqgUknIKCM4PgPGWI-18" style="edgeStyle=orthogonalEdgeStyle;rounded=0;orthogonalLoop=1;jettySize=auto;html=1;entryX=0;entryY=0.5;entryDx=0;entryDy=0;" edge="1" parent="1" source="B5_pqgUknIKCM4PgPGWI-4" target="B5_pqgUknIKCM4PgPGWI-5">
          <mxGeometry relative="1" as="geometry" />
        </mxCell>
        <mxCell id="B5_pqgUknIKCM4PgPGWI-4" value="&lt;font style=&quot;font-size: 18px;&quot;&gt;3&lt;/font&gt;" style="ellipse;whiteSpace=wrap;html=1;aspect=fixed;" vertex="1" parent="1">
          <mxGeometry x="200" y="240" width="80" height="80" as="geometry" />
        </mxCell>
        <mxCell id="B5_pqgUknIKCM4PgPGWI-9" style="edgeStyle=orthogonalEdgeStyle;rounded=0;orthogonalLoop=1;jettySize=auto;html=1;" edge="1" parent="1" source="B5_pqgUknIKCM4PgPGWI-5" target="B5_pqgUknIKCM4PgPGWI-8">
          <mxGeometry relative="1" as="geometry" />
        </mxCell>
        <mxCell id="B5_pqgUknIKCM4PgPGWI-5" value="&lt;font style=&quot;font-size: 18px;&quot;&gt;4&lt;/font&gt;" style="ellipse;whiteSpace=wrap;html=1;aspect=fixed;" vertex="1" parent="1">
          <mxGeometry x="440" y="240" width="80" height="80" as="geometry" />
        </mxCell>
        <mxCell id="B5_pqgUknIKCM4PgPGWI-13" style="edgeStyle=orthogonalEdgeStyle;rounded=0;orthogonalLoop=1;jettySize=auto;html=1;entryX=0.5;entryY=0;entryDx=0;entryDy=0;" edge="1" parent="1" source="B5_pqgUknIKCM4PgPGWI-8" target="B5_pqgUknIKCM4PgPGWI-12">
          <mxGeometry relative="1" as="geometry" />
        </mxCell>
        <mxCell id="B5_pqgUknIKCM4PgPGWI-8" value="&lt;font style=&quot;font-size: 18px;&quot;&gt;5&lt;/font&gt;" style="ellipse;whiteSpace=wrap;html=1;aspect=fixed;" vertex="1" parent="1">
          <mxGeometry x="440" y="360" width="80" height="80" as="geometry" />
        </mxCell>
        <mxCell id="B5_pqgUknIKCM4PgPGWI-11" value="" style="endArrow=classic;html=1;rounded=0;exitX=0.5;exitY=1;exitDx=0;exitDy=0;entryX=1;entryY=0.625;entryDx=0;entryDy=0;entryPerimeter=0;edgeStyle=orthogonalEdgeStyle;" edge="1" parent="1" source="B5_pqgUknIKCM4PgPGWI-8" target="B5_pqgUknIKCM4PgPGWI-8">
          <mxGeometry width="50" height="50" relative="1" as="geometry">
            <mxPoint x="480" y="520" as="sourcePoint" />
            <mxPoint x="530" y="470" as="targetPoint" />
            <Array as="points">
              <mxPoint x="480" y="480" />
              <mxPoint x="600" y="480" />
              <mxPoint x="600" y="410" />
            </Array>
          </mxGeometry>
        </mxCell>
        <mxCell id="B5_pqgUknIKCM4PgPGWI-15" style="edgeStyle=orthogonalEdgeStyle;rounded=0;orthogonalLoop=1;jettySize=auto;html=1;" edge="1" parent="1" source="B5_pqgUknIKCM4PgPGWI-12" target="B5_pqgUknIKCM4PgPGWI-14">
          <mxGeometry relative="1" as="geometry" />
        </mxCell>
        <mxCell id="B5_pqgUknIKCM4PgPGWI-17" style="edgeStyle=orthogonalEdgeStyle;rounded=0;orthogonalLoop=1;jettySize=auto;html=1;entryX=0.5;entryY=0;entryDx=0;entryDy=0;" edge="1" parent="1" source="B5_pqgUknIKCM4PgPGWI-12" target="B5_pqgUknIKCM4PgPGWI-16">
          <mxGeometry relative="1" as="geometry" />
        </mxCell>
        <mxCell id="B5_pqgUknIKCM4PgPGWI-12" value="&lt;font style=&quot;font-size: 18px;&quot;&gt;6&lt;/font&gt;" style="ellipse;whiteSpace=wrap;html=1;aspect=fixed;" vertex="1" parent="1">
          <mxGeometry x="440" y="520" width="80" height="80" as="geometry" />
        </mxCell>
        <mxCell id="B5_pqgUknIKCM4PgPGWI-14" value="&lt;font style=&quot;font-size: 18px;&quot;&gt;7&lt;/font&gt;" style="ellipse;whiteSpace=wrap;html=1;aspect=fixed;" vertex="1" parent="1">
          <mxGeometry x="320" y="520" width="80" height="80" as="geometry" />
        </mxCell>
        <mxCell id="B5_pqgUknIKCM4PgPGWI-16" value="&lt;font style=&quot;font-size: 18px;&quot;&gt;end&lt;/font&gt;" style="ellipse;whiteSpace=wrap;html=1;aspect=fixed;" vertex="1" parent="1">
          <mxGeometry x="440" y="640" width="80" height="80" as="geometry" />
        </mxCell>
      </root>
    </mxGraphModel>
  </diagram>
</mxfile>
